REM DIRINDEX 1\2\4\18,1\2\4\19,1\2\5\20,1\2\5\21,1\2\6\22,1\2\7\23,1\2\8\24,1\2\8\25,1\2\9\26,1\2\10\27,1\3\11\28,1\3\11\29,1\3\11\30,1\3\11\31,1\3\12\32,1\3\12\33,1\3\12\34,1\3\12\35,1\3\13\36,1\3\13\37,1\3\14\38,1\3\14\39,1\3\15\40,1\3\15\41,1\3\15\42,1\3\16\43,1\3\16\44,1\3\17\45,1\3\17\46
REM DIRNAME folder01,folder02,folder03,folder04,folder05,folder06,folder07,folder08,folder09,folder10,folder11,folder12,folder13,folder14,folder15,folder16,folder17,folder18,folder19,folder20,folder21,folder22,folder23,folder24,folder25,folder26,folder27,folder28,folder29,folder30,folder31,folder32,folder33,folder34,folder35,folder36,folder37,folder38,folder39,folder40,folder41,folder42,folder43,folder44,folder45,folder46
TITLE ""
FILE "13.mp3" MP3
  TRACK 01 AUDIO
    TITLE "0:"
    INDEX 01 00:00:00
  TRACK 02 AUDIO
    TITLE "28:cjc024_6721"
    INDEX 01 00:00:11
  TRACK 03 AUDIO
    TITLE "0:"
    INDEX 01 00:01:30
  TRACK 04 AUDIO
    TITLE "29:cjc024_6722"
    INDEX 01 00:01:68
  TRACK 05 AUDIO
    TITLE "0:"
    INDEX 01 00:03:59
  TRACK 06 AUDIO
    TITLE "30:cjc024_6723"
    INDEX 01 00:04:27
  TRACK 07 AUDIO
    TITLE "0:"
    INDEX 01 00:06:30
  TRACK 08 AUDIO
    TITLE "31:cjc024_6724"
    INDEX 01 00:06:55
  TRACK 09 AUDIO
    TITLE "0:"
    INDEX 01 00:08:58
  TRACK 10 AUDIO
    TITLE "28:cjc024_6725"
    INDEX 01 00:09:57
  TRACK 11 AUDIO
    TITLE "0:"
    INDEX 01 00:11:01
  TRACK 12 AUDIO
    TITLE "29:cjc024_6726"
    INDEX 01 00:11:39
  TRACK 13 AUDIO
    TITLE "0:"
    INDEX 01 00:13:10
  TRACK 14 AUDIO
    TITLE "30:cjc024_6727"
    INDEX 01 00:13:45
  TRACK 15 AUDIO
    TITLE "0:"
    INDEX 01 00:15:42
  TRACK 16 AUDIO
    TITLE "31:cjc024_6728"
    INDEX 01 00:15:64
  TRACK 17 AUDIO
    TITLE "0:"
    INDEX 01 00:17:59
  TRACK 18 AUDIO
    TITLE "28:cjc024_6729"
    INDEX 01 00:18:58
  TRACK 19 AUDIO
    TITLE "0:"
    INDEX 01 00:19:42
  TRACK 20 AUDIO
    TITLE "29:cjc024_6730"
    INDEX 01 00:20:16
  TRACK 21 AUDIO
    TITLE "0:"
    INDEX 01 00:22:01
  TRACK 22 AUDIO
    TITLE "30:cjc024_6731"
    INDEX 01 00:22:38
  TRACK 23 AUDIO
    TITLE "0:"
    INDEX 01 00:23:50
  TRACK 24 AUDIO
    TITLE "31:cjc024_6732"
    INDEX 01 00:24:10
  TRACK 25 AUDIO
    TITLE "0:"
    INDEX 01 00:25:23
  TRACK 26 AUDIO
    TITLE "28:cjc024_6733"
    INDEX 01 00:26:32
  TRACK 27 AUDIO
    TITLE "0:"
    INDEX 01 00:27:47
  TRACK 28 AUDIO
    TITLE "29:cjc024_6734"
    INDEX 01 00:28:15
  TRACK 29 AUDIO
    TITLE "0:"
    INDEX 01 00:30:10
  TRACK 30 AUDIO
    TITLE "30:cjc024_6735"
    INDEX 01 00:30:54
  TRACK 31 AUDIO
    TITLE "0:"
    INDEX 01 00:32:52
  TRACK 32 AUDIO
    TITLE "31:cjc024_6736"
    INDEX 01 00:33:07
  TRACK 33 AUDIO
    TITLE "0:"
    INDEX 01 00:35:08
  TRACK 34 AUDIO
    TITLE "28:cjc024_6737"
    INDEX 01 00:36:07
  TRACK 35 AUDIO
    TITLE "0:"
    INDEX 01 00:37:05
  TRACK 36 AUDIO
    TITLE "29:cjc024_6738"
    INDEX 01 00:37:40
  TRACK 37 AUDIO
    TITLE "0:"
    INDEX 01 00:39:25
  TRACK 38 AUDIO
    TITLE "30:cjc024_6739"
    INDEX 01 00:39:62
  TRACK 39 AUDIO
    TITLE "0:"
    INDEX 01 00:41:34
  TRACK 40 AUDIO
    TITLE "31:cjc024_6740"
    INDEX 01 00:41:59
  TRACK 41 AUDIO
    TITLE "0:"
    INDEX 01 00:43:31
  TRACK 42 AUDIO
    TITLE "28:cjc024_6741"
    INDEX 01 00:44:30
  TRACK 43 AUDIO
    TITLE "0:"
    INDEX 01 00:45:71
  TRACK 44 AUDIO
    TITLE "29:cjc024_6742"
    INDEX 01 00:46:37
  TRACK 45 AUDIO
    TITLE "0:"
    INDEX 01 00:49:25
  TRACK 46 AUDIO
    TITLE "30:cjc024_6743"
    INDEX 01 00:49:65
  TRACK 47 AUDIO
    TITLE "0:"
    INDEX 01 00:52:53
  TRACK 48 AUDIO
    TITLE "31:cjc024_6744"
    INDEX 01 00:53:04
  TRACK 49 AUDIO
    TITLE "0:"
    INDEX 01 00:55:69
  TRACK 50 AUDIO
    TITLE "28:cjc024_6745"
    INDEX 01 00:56:69
  TRACK 51 AUDIO
    TITLE "0:"
    INDEX 01 00:58:05
  TRACK 52 AUDIO
    TITLE "29:cjc024_6746"
    INDEX 01 00:58:44
  TRACK 53 AUDIO
    TITLE "0:"
    INDEX 01 01:01:50
  TRACK 54 AUDIO
    TITLE "30:cjc024_6747"
    INDEX 01 01:02:12
  TRACK 55 AUDIO
    TITLE "0:"
    INDEX 01 01:04:31
  TRACK 56 AUDIO
    TITLE "31:cjc024_6748"
    INDEX 01 01:04:54
  TRACK 57 AUDIO
    TITLE "0:"
    INDEX 01 01:07:00
  TRACK 58 AUDIO
    TITLE "28:cjc024_6749"
    INDEX 01 01:07:72
  TRACK 59 AUDIO
    TITLE "0:"
    INDEX 01 01:09:10
  TRACK 60 AUDIO
    TITLE "29:cjc024_6750"
    INDEX 01 01:09:48
  TRACK 61 AUDIO
    TITLE "0:"
    INDEX 01 01:12:50
  TRACK 62 AUDIO
    TITLE "30:cjc024_6751"
    INDEX 01 01:13:12
  TRACK 63 AUDIO
    TITLE "0:"
    INDEX 01 01:16:22
  TRACK 64 AUDIO
    TITLE "31:cjc024_6752"
    INDEX 01 01:16:46
  TRACK 65 AUDIO
    TITLE "0:"
    INDEX 01 01:19:56
  TRACK 66 AUDIO
    TITLE "28:cjc024_6753"
    INDEX 01 01:20:61
  TRACK 67 AUDIO
    TITLE "0:"
    INDEX 01 01:21:74
  TRACK 68 AUDIO
    TITLE "29:cjc024_6754"
    INDEX 01 01:22:41
  TRACK 69 AUDIO
    TITLE "0:"
    INDEX 01 01:23:73
  TRACK 70 AUDIO
    TITLE "30:cjc024_6755"
    INDEX 01 01:24:36
  TRACK 71 AUDIO
    TITLE "0:"
    INDEX 01 01:26:01
  TRACK 72 AUDIO
    TITLE "31:cjc024_6756"
    INDEX 01 01:26:25
  TRACK 73 AUDIO
    TITLE "0:"
    INDEX 01 01:27:61
  TRACK 74 AUDIO
    TITLE "28:cjc024_6757"
    INDEX 01 01:28:65
  TRACK 75 AUDIO
    TITLE "0:"
    INDEX 01 01:29:66
  TRACK 76 AUDIO
    TITLE "29:cjc024_6758"
    INDEX 01 01:30:28
  TRACK 77 AUDIO
    TITLE "0:"
    INDEX 01 01:32:08
  TRACK 78 AUDIO
    TITLE "30:cjc024_6759"
    INDEX 01 01:32:45
  TRACK 79 AUDIO
    TITLE "0:"
    INDEX 01 01:34:08
  TRACK 80 AUDIO
    TITLE "31:cjc024_6760"
    INDEX 01 01:34:34
  TRACK 81 AUDIO
    TITLE "0:"
    INDEX 01 01:36:00
  TRACK 82 AUDIO
    TITLE "28:cjc024_6761"
    INDEX 01 01:36:70
  TRACK 83 AUDIO
    TITLE "0:"
    INDEX 01 01:38:04
  TRACK 84 AUDIO
    TITLE "29:cjc024_6762"
    INDEX 01 01:38:43
  TRACK 85 AUDIO
    TITLE "0:"
    INDEX 01 01:41:34
  TRACK 86 AUDIO
    TITLE "30:cjc024_6763"
    INDEX 01 01:41:73
  TRACK 87 AUDIO
    TITLE "0:"
    INDEX 01 01:43:64
  TRACK 88 AUDIO
    TITLE "31:cjc024_6764"
    INDEX 01 01:44:15
  TRACK 89 AUDIO
    TITLE "0:"
    INDEX 01 01:46:06
  TRACK 90 AUDIO
    TITLE "28:cjc024_6765"
    INDEX 01 01:47:07
  TRACK 91 AUDIO
    TITLE "0:"
    INDEX 01 01:48:16
  TRACK 92 AUDIO
    TITLE "29:cjc024_6766"
    INDEX 01 01:48:58
  TRACK 93 AUDIO
    TITLE "0:"
    INDEX 01 01:50:23
  TRACK 94 AUDIO
    TITLE "30:cjc024_6767"
    INDEX 01 01:50:60
  TRACK 95 AUDIO
    TITLE "0:"
    INDEX 01 01:52:48
  TRACK 96 AUDIO
    TITLE "31:cjc024_6768"
    INDEX 01 01:52:73
  TRACK 97 AUDIO
    TITLE "0:"
    INDEX 01 01:54:60
  TRACK 98 AUDIO
    TITLE "28:cjc024_6769"
    INDEX 01 01:55:62
  TRACK 99 AUDIO
    TITLE "0:"
    INDEX 01 01:57:21
  TRACK 100 AUDIO
    TITLE "29:cjc024_6770"
    INDEX 01 01:57:58
  TRACK 101 AUDIO
    TITLE "0:"
    INDEX 01 02:00:31
  TRACK 102 AUDIO
    TITLE "30:cjc024_6771"
    INDEX 01 02:00:71
  TRACK 103 AUDIO
    TITLE "0:"
    INDEX 01 02:03:34
  TRACK 104 AUDIO
    TITLE "31:cjc024_6772"
    INDEX 01 02:03:57
  TRACK 105 AUDIO
    TITLE "0:"
    INDEX 01 02:06:24
  TRACK 106 AUDIO
    TITLE "28:cjc024_6773"
    INDEX 01 02:07:26
  TRACK 107 AUDIO
    TITLE "0:"
    INDEX 01 02:08:33
  TRACK 108 AUDIO
    TITLE "29:cjc024_6774"
    INDEX 01 02:08:70
  TRACK 109 AUDIO
    TITLE "0:"
    INDEX 01 02:10:42
  TRACK 110 AUDIO
    TITLE "30:cjc024_6775"
    INDEX 01 02:11:02
  TRACK 111 AUDIO
    TITLE "0:"
    INDEX 01 02:13:10
  TRACK 112 AUDIO
    TITLE "31:cjc024_6776"
    INDEX 01 02:13:36
  TRACK 113 AUDIO
    TITLE "0:"
    INDEX 01 02:15:43
  TRACK 114 AUDIO
    TITLE "28:cjc024_6777"
    INDEX 01 02:16:42
  TRACK 115 AUDIO
    TITLE "0:"
    INDEX 01 02:17:45
  TRACK 116 AUDIO
    TITLE "29:cjc024_6778"
    INDEX 01 02:18:10
  TRACK 117 AUDIO
    TITLE "0:"
    INDEX 01 02:19:56
  TRACK 118 AUDIO
    TITLE "30:cjc024_6779"
    INDEX 01 02:20:16
  TRACK 119 AUDIO
    TITLE "0:"
    INDEX 01 02:21:63
  TRACK 120 AUDIO
    TITLE "31:cjc024_6780"
    INDEX 01 02:22:15
  TRACK 121 AUDIO
    TITLE "0:"
    INDEX 01 02:23:64
  TRACK 122 AUDIO
    TITLE "28:cjc024_6781"
    INDEX 01 02:24:65
  TRACK 123 AUDIO
    TITLE "0:"
    INDEX 01 02:26:11
  TRACK 124 AUDIO
    TITLE "29:cjc024_6782"
    INDEX 01 02:26:48
  TRACK 125 AUDIO
    TITLE "0:"
    INDEX 01 02:28:43
  TRACK 126 AUDIO
    TITLE "30:cjc024_6783"
    INDEX 01 02:29:08
  TRACK 127 AUDIO
    TITLE "0:"
    INDEX 01 02:30:66
  TRACK 128 AUDIO
    TITLE "31:cjc024_6784"
    INDEX 01 02:31:18
  TRACK 129 AUDIO
    TITLE "0:"
    INDEX 01 02:33:01
  TRACK 130 AUDIO
    TITLE "28:cjc024_6785"
    INDEX 01 02:34:03
  TRACK 131 AUDIO
    TITLE "0:"
    INDEX 01 02:35:28
  TRACK 132 AUDIO
    TITLE "29:cjc024_6786"
    INDEX 01 02:35:67
  TRACK 133 AUDIO
    TITLE "0:"
    INDEX 01 02:40:21
  TRACK 134 AUDIO
    TITLE "30:cjc024_6787"
    INDEX 01 02:40:58
  TRACK 135 AUDIO
    TITLE "0:"
    INDEX 01 02:43:61
  TRACK 136 AUDIO
    TITLE "31:cjc024_6788"
    INDEX 01 02:44:11
  TRACK 137 AUDIO
    TITLE "0:"
    INDEX 01 02:47:11
  TRACK 138 AUDIO
    TITLE "28:cjc024_6789"
    INDEX 01 02:48:13
  TRACK 139 AUDIO
    TITLE "0:"
    INDEX 01 02:49:22
  TRACK 140 AUDIO
    TITLE "29:cjc024_6790"
    INDEX 01 02:49:61
  TRACK 141 AUDIO
    TITLE "0:"
    INDEX 01 02:51:54
  TRACK 142 AUDIO
    TITLE "30:cjc024_6791"
    INDEX 01 02:52:16
  TRACK 143 AUDIO
    TITLE "0:"
    INDEX 01 02:53:63
  TRACK 144 AUDIO
    TITLE "31:cjc024_6792"
    INDEX 01 02:54:13
  TRACK 145 AUDIO
    TITLE "0:"
    INDEX 01 02:55:58
  TRACK 146 AUDIO
    TITLE "28:cjc024_6793"
    INDEX 01 02:56:61
  TRACK 147 AUDIO
    TITLE "0:"
    INDEX 01 02:57:69
  TRACK 148 AUDIO
    TITLE "29:cjc024_6794"
    INDEX 01 02:58:31
  TRACK 149 AUDIO
    TITLE "0:"
    INDEX 01 02:59:67
  TRACK 150 AUDIO
    TITLE "30:cjc024_6795"
    INDEX 01 03:00:34
  TRACK 151 AUDIO
    TITLE "0:"
    INDEX 01 03:02:29
  TRACK 152 AUDIO
    TITLE "31:cjc024_6796"
    INDEX 01 03:02:50
  TRACK 153 AUDIO
    TITLE "0:"
    INDEX 01 03:04:47
  TRACK 154 AUDIO
    TITLE "28:cjc024_6797"
    INDEX 01 03:05:46
  TRACK 155 AUDIO
    TITLE "0:"
    INDEX 01 03:06:58
  TRACK 156 AUDIO
    TITLE "29:cjc024_6798"
    INDEX 01 03:07:24
  TRACK 157 AUDIO
    TITLE "0:"
    INDEX 01 03:09:42
  TRACK 158 AUDIO
    TITLE "30:cjc024_6799"
    INDEX 01 03:10:06
  TRACK 159 AUDIO
    TITLE "0:"
    INDEX 01 03:12:00
  TRACK 160 AUDIO
    TITLE "31:cjc024_6800"
    INDEX 01 03:12:25
  TRACK 161 AUDIO
    TITLE "0:"
    INDEX 01 03:14:14
  TRACK 162 AUDIO
    TITLE "28:cjc024_6801"
    INDEX 01 03:15:15
  TRACK 163 AUDIO
    TITLE "0:"
    INDEX 01 03:16:33
  TRACK 164 AUDIO
    TITLE "29:cjc024_6802"
    INDEX 01 03:16:68
  TRACK 165 AUDIO
    TITLE "0:"
    INDEX 01 03:20:21
  TRACK 166 AUDIO
    TITLE "30:cjc024_6803"
    INDEX 01 03:20:60
  TRACK 167 AUDIO
    TITLE "0:"
    INDEX 01 03:23:48
  TRACK 168 AUDIO
    TITLE "31:cjc024_6804"
    INDEX 01 03:23:72
  TRACK 169 AUDIO
    TITLE "0:"
    INDEX 01 03:26:60
  TRACK 170 AUDIO
    TITLE "28:cjc024_6805"
    INDEX 01 03:27:60
  TRACK 171 AUDIO
    TITLE "0:"
    INDEX 01 03:28:65
  TRACK 172 AUDIO
    TITLE "29:cjc024_6806"
    INDEX 01 03:29:29
  TRACK 173 AUDIO
    TITLE "0:"
    INDEX 01 03:32:00
  TRACK 174 AUDIO
    TITLE "30:cjc024_6807"
    INDEX 01 03:32:37
  TRACK 175 AUDIO
    TITLE "0:"
    INDEX 01 03:35:06
  TRACK 176 AUDIO
    TITLE "31:cjc024_6808"
    INDEX 01 03:35:30
  TRACK 177 AUDIO
    TITLE "0:"
    INDEX 01 03:37:74
  TRACK 178 AUDIO
    TITLE "28:cjc024_6809"
    INDEX 01 03:38:73
  TRACK 179 AUDIO
    TITLE "0:"
    INDEX 01 03:40:10
  TRACK 180 AUDIO
    TITLE "29:cjc024_6810"
    INDEX 01 03:40:49
  TRACK 181 AUDIO
    TITLE "0:"
    INDEX 01 03:43:24
  TRACK 182 AUDIO
    TITLE "30:cjc024_6811"
    INDEX 01 03:43:61
  TRACK 183 AUDIO
    TITLE "0:"
    INDEX 01 03:46:55
  TRACK 184 AUDIO
    TITLE "31:cjc024_6812"
    INDEX 01 03:47:06
  TRACK 185 AUDIO
    TITLE "0:"
    INDEX 01 03:50:00
  TRACK 186 AUDIO
    TITLE "28:cjc024_6813"
    INDEX 01 03:51:02
  TRACK 187 AUDIO
    TITLE "0:"
    INDEX 01 03:52:21
  TRACK 188 AUDIO
    TITLE "29:cjc024_6814"
    INDEX 01 03:52:64
  TRACK 189 AUDIO
    TITLE "0:"
    INDEX 01 03:55:54
  TRACK 190 AUDIO
    TITLE "30:cjc024_6815"
    INDEX 01 03:56:18
  TRACK 191 AUDIO
    TITLE "0:"
    INDEX 01 03:58:49
  TRACK 192 AUDIO
    TITLE "31:cjc024_6816"
    INDEX 01 03:59:07
  TRACK 193 AUDIO
    TITLE "0:"
    INDEX 01 04:01:37
  TRACK 194 AUDIO
    TITLE "28:cjc024_6817"
    INDEX 01 04:02:48
  TRACK 195 AUDIO
    TITLE "0:"
    INDEX 01 04:04:00
  TRACK 196 AUDIO
    TITLE "29:cjc024_6818"
    INDEX 01 04:04:37
  TRACK 197 AUDIO
    TITLE "0:"
    INDEX 01 04:07:51
  TRACK 198 AUDIO
    TITLE "30:cjc024_6819"
    INDEX 01 04:08:12
  TRACK 199 AUDIO
    TITLE "0:"
    INDEX 01 04:11:45
  TRACK 200 AUDIO
    TITLE "31:cjc024_6820"
    INDEX 01 04:12:13
  TRACK 201 AUDIO
    TITLE "0:"
    INDEX 01 04:15:45
  TRACK 202 AUDIO
    TITLE "28:cjc024_6821"
    INDEX 01 04:16:62
  TRACK 203 AUDIO
    TITLE "0:"
    INDEX 01 04:17:68
  TRACK 204 AUDIO
    TITLE "29:cjc024_6822"
    INDEX 01 04:18:40
  TRACK 205 AUDIO
    TITLE "0:"
    INDEX 01 04:22:06
  TRACK 206 AUDIO
    TITLE "30:cjc024_6823"
    INDEX 01 04:22:43
  TRACK 207 AUDIO
    TITLE "0:"
    INDEX 01 04:25:06
  TRACK 208 AUDIO
    TITLE "31:cjc024_6824"
    INDEX 01 04:25:40
  TRACK 209 AUDIO
    TITLE "0:"
    INDEX 01 04:28:01
  TRACK 210 AUDIO
    TITLE "28:cjc024_6825"
    INDEX 01 04:29:08
  TRACK 211 AUDIO
    TITLE "0:"
    INDEX 01 04:30:31
  TRACK 212 AUDIO
    TITLE "29:cjc024_6826"
    INDEX 01 04:31:03
  TRACK 213 AUDIO
    TITLE "0:"
    INDEX 01 04:33:20
  TRACK 214 AUDIO
    TITLE "30:cjc024_6827"
    INDEX 01 04:33:63
  TRACK 215 AUDIO
    TITLE "0:"
    INDEX 01 04:35:58
  TRACK 216 AUDIO
    TITLE "31:cjc024_6828"
    INDEX 01 04:36:08
  TRACK 217 AUDIO
    TITLE "0:"
    INDEX 01 04:38:01
  TRACK 218 AUDIO
    TITLE "28:cjc024_6829"
    INDEX 01 04:39:03
  TRACK 219 AUDIO
    TITLE "0:"
    INDEX 01 04:40:10
  TRACK 220 AUDIO
    TITLE "29:cjc024_6830"
    INDEX 01 04:40:47
  TRACK 221 AUDIO
    TITLE "0:"
    INDEX 01 04:42:01
  TRACK 222 AUDIO
    TITLE "30:cjc024_6831"
    INDEX 01 04:42:38
  TRACK 223 AUDIO
    TITLE "0:"
    INDEX 01 04:44:29
  TRACK 224 AUDIO
    TITLE "31:cjc024_6832"
    INDEX 01 04:44:55
  TRACK 225 AUDIO
    TITLE "0:"
    INDEX 01 04:46:44
  TRACK 226 AUDIO
    TITLE "28:cjc024_6833"
    INDEX 01 04:47:43
  TRACK 227 AUDIO
    TITLE "0:"
    INDEX 01 04:48:60
  TRACK 228 AUDIO
    TITLE "29:cjc024_6834"
    INDEX 01 04:49:24
  TRACK 229 AUDIO
    TITLE "0:"
    INDEX 01 04:51:37
  TRACK 230 AUDIO
    TITLE "30:cjc024_6835"
    INDEX 01 04:52:01
  TRACK 231 AUDIO
    TITLE "0:"
    INDEX 01 04:53:65
  TRACK 232 AUDIO
    TITLE "31:cjc024_6836"
    INDEX 01 04:54:16
  TRACK 233 AUDIO
    TITLE "0:"
    INDEX 01 04:56:05
  TRACK 234 AUDIO
    TITLE "28:cjc024_6837"
    INDEX 01 04:57:06
  TRACK 235 AUDIO
    TITLE "0:"
    INDEX 01 04:58:21
  TRACK 236 AUDIO
    TITLE "29:cjc024_6838"
    INDEX 01 04:58:72
  TRACK 237 AUDIO
    TITLE "0:"
    INDEX 01 05:01:20
  TRACK 238 AUDIO
    TITLE "30:cjc024_6839"
    INDEX 01 05:01:55
  TRACK 239 AUDIO
    TITLE "0:"
    INDEX 01 05:04:08
  TRACK 240 AUDIO
    TITLE "31:cjc024_6840"
    INDEX 01 05:04:48
  TRACK 241 AUDIO
    TITLE "0:"
    INDEX 01 05:06:74
  TRACK 242 AUDIO
    TITLE "28:cjc024_6841"
    INDEX 01 05:08:10
  TRACK 243 AUDIO
    TITLE "0:"
    INDEX 01 05:09:27
  TRACK 244 AUDIO
    TITLE "29:cjc024_6842"
    INDEX 01 05:09:64
  TRACK 245 AUDIO
    TITLE "0:"
    INDEX 01 05:11:65
  TRACK 246 AUDIO
    TITLE "30:cjc024_6843"
    INDEX 01 05:12:27
  TRACK 247 AUDIO
    TITLE "0:"
    INDEX 01 05:14:64
  TRACK 248 AUDIO
    TITLE "31:cjc024_6844"
    INDEX 01 05:15:14
  TRACK 249 AUDIO
    TITLE "0:"
    INDEX 01 05:17:48
  TRACK 250 AUDIO
    TITLE "28:cjc024_6845"
    INDEX 01 05:18:50
  TRACK 251 AUDIO
    TITLE "0:"
    INDEX 01 05:19:73
  TRACK 252 AUDIO
    TITLE "29:cjc024_6846"
    INDEX 01 05:20:33
  TRACK 253 AUDIO
    TITLE "0:"
    INDEX 01 05:22:08
  TRACK 254 AUDIO
    TITLE "30:cjc024_6847"
    INDEX 01 05:22:45
  TRACK 255 AUDIO
    TITLE "0:"
    INDEX 01 05:24:58
  TRACK 256 AUDIO
    TITLE "31:cjc024_6848"
    INDEX 01 05:25:14
  TRACK 257 AUDIO
    TITLE "0:"
    INDEX 01 05:27:29
  TRACK 258 AUDIO
    TITLE "28:cjc024_6849"
    INDEX 01 05:28:34
  TRACK 259 AUDIO
    TITLE "0:"
    INDEX 01 05:29:42
  TRACK 260 AUDIO
    TITLE "29:cjc024_6850"
    INDEX 01 05:30:04
  TRACK 261 AUDIO
    TITLE "0:"
    INDEX 01 05:32:07
  TRACK 262 AUDIO
    TITLE "30:cjc024_6851"
    INDEX 01 05:32:42
  TRACK 263 AUDIO
    TITLE "0:"
    INDEX 01 05:35:03
  TRACK 264 AUDIO
    TITLE "31:cjc024_6852"
    INDEX 01 05:35:30
  TRACK 265 AUDIO
    TITLE "0:"
    INDEX 01 05:37:69
  TRACK 266 AUDIO
    TITLE "28:cjc024_6853"
    INDEX 01 05:38:68
  TRACK 267 AUDIO
    TITLE "0:"
    INDEX 01 05:40:16
  TRACK 268 AUDIO
    TITLE "29:cjc024_6854"
    INDEX 01 05:40:59
  TRACK 269 AUDIO
    TITLE "0:"
    INDEX 01 05:42:23
  TRACK 270 AUDIO
    TITLE "30:cjc024_6855"
    INDEX 01 05:42:58
  TRACK 271 AUDIO
    TITLE "0:"
    INDEX 01 05:44:39
  TRACK 272 AUDIO
    TITLE "31:cjc024_6856"
    INDEX 01 05:44:67
  TRACK 273 AUDIO
    TITLE "0:"
    INDEX 01 05:46:46
  TRACK 274 AUDIO
    TITLE "28:cjc024_6857"
    INDEX 01 05:47:47
  TRACK 275 AUDIO
    TITLE "0:"
    INDEX 01 05:48:59
  TRACK 276 AUDIO
    TITLE "29:cjc024_6858"
    INDEX 01 05:49:19
  TRACK 277 AUDIO
    TITLE "0:"
    INDEX 01 05:51:61
  TRACK 278 AUDIO
    TITLE "30:cjc024_6859"
    INDEX 01 05:52:25
  TRACK 279 AUDIO
    TITLE "0:"
    INDEX 01 05:54:43
  TRACK 280 AUDIO
    TITLE "31:cjc024_6860"
    INDEX 01 05:54:67
  TRACK 281 AUDIO
    TITLE "0:"
    INDEX 01 05:57:10
  TRACK 282 AUDIO
    TITLE "28:cjc024_6861"
    INDEX 01 05:58:10
  TRACK 283 AUDIO
    TITLE "0:"
    INDEX 01 05:59:31
  TRACK 284 AUDIO
    TITLE "29:cjc024_6862"
    INDEX 01 05:59:68
  TRACK 285 AUDIO
    TITLE "0:"
    INDEX 01 06:02:59
  TRACK 286 AUDIO
    TITLE "30:cjc024_6863"
    INDEX 01 06:03:21
  TRACK 287 AUDIO
    TITLE "0:"
    INDEX 01 06:05:63
  TRACK 288 AUDIO
    TITLE "31:cjc024_6864"
    INDEX 01 06:06:15
  TRACK 289 AUDIO
    TITLE "0:"
    INDEX 01 06:08:59
  TRACK 290 AUDIO
    TITLE "28:cjc024_6865"
    INDEX 01 06:09:63
  TRACK 291 AUDIO
    TITLE "0:"
    INDEX 01 06:11:15
  TRACK 292 AUDIO
    TITLE "29:cjc024_6866"
    INDEX 01 06:11:54
  TRACK 293 AUDIO
    TITLE "0:"
    INDEX 01 06:13:06
  TRACK 294 AUDIO
    TITLE "30:cjc024_6867"
    INDEX 01 06:13:41
  TRACK 295 AUDIO
    TITLE "0:"
    INDEX 01 06:15:08
  TRACK 296 AUDIO
    TITLE "31:cjc024_6868"
    INDEX 01 06:15:32
  TRACK 297 AUDIO
    TITLE "0:"
    INDEX 01 06:17:01
  TRACK 298 AUDIO
    TITLE "28:cjc024_6869"
    INDEX 01 06:18:01
  TRACK 299 AUDIO
    TITLE "0:"
    INDEX 01 06:19:26
  TRACK 300 AUDIO
    TITLE "29:cjc024_6870"
    INDEX 01 06:19:65
  TRACK 301 AUDIO
    TITLE "0:"
    INDEX 01 06:21:36
  TRACK 302 AUDIO
    TITLE "30:cjc024_6871"
    INDEX 01 06:22:05
  TRACK 303 AUDIO
    TITLE "0:"
    INDEX 01 06:23:61
  TRACK 304 AUDIO
    TITLE "31:cjc024_6872"
    INDEX 01 06:24:11
  TRACK 305 AUDIO
    TITLE "0:"
    INDEX 01 06:25:69
  TRACK 306 AUDIO
    TITLE "28:cjc024_6873"
    INDEX 01 06:26:71
  TRACK 307 AUDIO
    TITLE "0:"
    INDEX 01 06:28:09
  TRACK 308 AUDIO
    TITLE "29:cjc024_6874"
    INDEX 01 06:28:46
  TRACK 309 AUDIO
    TITLE "0:"
    INDEX 01 06:31:13
  TRACK 310 AUDIO
    TITLE "30:cjc024_6875"
    INDEX 01 06:31:51
  TRACK 311 AUDIO
    TITLE "0:"
    INDEX 01 06:34:18
  TRACK 312 AUDIO
    TITLE "31:cjc024_6876"
    INDEX 01 06:34:47
  TRACK 313 AUDIO
    TITLE "0:"
    INDEX 01 06:37:12
  TRACK 314 AUDIO
    TITLE "28:cjc024_6877"
    INDEX 01 06:38:15
  TRACK 315 AUDIO
    TITLE "0:"
    INDEX 01 06:39:38
  TRACK 316 AUDIO
    TITLE "29:cjc024_6878"
    INDEX 01 06:40:00
  TRACK 317 AUDIO
    TITLE "0:"
    INDEX 01 06:42:66
  TRACK 318 AUDIO
    TITLE "30:cjc024_6879"
    INDEX 01 06:43:30
  TRACK 319 AUDIO
    TITLE "0:"
    INDEX 01 06:45:51
  TRACK 320 AUDIO
    TITLE "31:cjc024_6880"
    INDEX 01 06:46:03
  TRACK 321 AUDIO
    TITLE "0:"
    INDEX 01 06:48:25
  TRACK 322 AUDIO
    TITLE "28:cjc024_6881"
    INDEX 01 06:49:27
  TRACK 323 AUDIO
    TITLE "0:"
    INDEX 01 06:50:40
  TRACK 324 AUDIO
    TITLE "29:cjc024_6882"
    INDEX 01 06:51:14
  TRACK 325 AUDIO
    TITLE "0:"
    INDEX 01 06:52:57
  TRACK 326 AUDIO
    TITLE "30:cjc024_6883"
    INDEX 01 06:53:17
  TRACK 327 AUDIO
    TITLE "0:"
    INDEX 01 06:54:50
  TRACK 328 AUDIO
    TITLE "31:cjc024_6884"
    INDEX 01 06:55:12
  TRACK 329 AUDIO
    TITLE "0:"
    INDEX 01 06:56:45
  TRACK 330 AUDIO
    TITLE "28:cjc024_6885"
    INDEX 01 06:57:62
  TRACK 331 AUDIO
    TITLE "0:"
    INDEX 01 06:59:12
  TRACK 332 AUDIO
    TITLE "29:cjc024_6886"
    INDEX 01 06:59:55
  TRACK 333 AUDIO
    TITLE "0:"
    INDEX 01 07:02:43
  TRACK 334 AUDIO
    TITLE "30:cjc024_6887"
    INDEX 01 07:03:05
  TRACK 335 AUDIO
    TITLE "0:"
    INDEX 01 07:05:67
  TRACK 336 AUDIO
    TITLE "31:cjc024_6888"
    INDEX 01 07:06:19
  TRACK 337 AUDIO
    TITLE "0:"
    INDEX 01 07:09:06
  TRACK 338 AUDIO
    TITLE "28:cjc024_6889"
    INDEX 01 07:10:09
  TRACK 339 AUDIO
    TITLE "0:"
    INDEX 01 07:11:27
  TRACK 340 AUDIO
    TITLE "29:cjc024_6890"
    INDEX 01 07:11:60
  TRACK 341 AUDIO
    TITLE "0:"
    INDEX 01 07:13:41
  TRACK 342 AUDIO
    TITLE "30:cjc024_6891"
    INDEX 01 07:14:05
  TRACK 343 AUDIO
    TITLE "0:"
    INDEX 01 07:15:56
  TRACK 344 AUDIO
    TITLE "31:cjc024_6892"
    INDEX 01 07:16:02
  TRACK 345 AUDIO
    TITLE "0:"
    INDEX 01 07:17:53
  TRACK 346 AUDIO
    TITLE "28:cjc024_6893"
    INDEX 01 07:18:56
  TRACK 347 AUDIO
    TITLE "0:"
    INDEX 01 07:19:67
  TRACK 348 AUDIO
    TITLE "29:cjc024_6894"
    INDEX 01 07:20:35
  TRACK 349 AUDIO
    TITLE "0:"
    INDEX 01 07:23:38
  TRACK 350 AUDIO
    TITLE "30:cjc024_6895"
    INDEX 01 07:24:02
  TRACK 351 AUDIO
    TITLE "0:"
    INDEX 01 07:27:37
  TRACK 352 AUDIO
    TITLE "31:cjc024_6896"
    INDEX 01 07:27:71
  TRACK 353 AUDIO
    TITLE "0:"
    INDEX 01 07:31:33
  TRACK 354 AUDIO
    TITLE "28:cjc024_6897"
    INDEX 01 07:32:40
  TRACK 355 AUDIO
    TITLE "0:"
    INDEX 01 07:33:54
  TRACK 356 AUDIO
    TITLE "29:cjc024_6898"
    INDEX 01 07:34:18
  TRACK 357 AUDIO
    TITLE "0:"
    INDEX 01 07:37:26
  TRACK 358 AUDIO
    TITLE "30:cjc024_6899"
    INDEX 01 07:37:63
  TRACK 359 AUDIO
    TITLE "0:"
    INDEX 01 07:40:58
  TRACK 360 AUDIO
    TITLE "31:cjc024_6900"
    INDEX 01 07:41:02
  TRACK 361 AUDIO
    TITLE "0:"
    INDEX 01 07:43:72
  TRACK 362 AUDIO
    TITLE "28:cjc024_6901"
    INDEX 01 07:44:67
  TRACK 363 AUDIO
    TITLE "0:"
    INDEX 01 07:46:09
  TRACK 364 AUDIO
    TITLE "29:cjc024_6902"
    INDEX 01 07:46:52
  TRACK 365 AUDIO
    TITLE "0:"
    INDEX 01 07:48:41
  TRACK 366 AUDIO
    TITLE "30:cjc024_6903"
    INDEX 01 07:49:08
  TRACK 367 AUDIO
    TITLE "0:"
    INDEX 01 07:50:58
  TRACK 368 AUDIO
    TITLE "31:cjc024_6904"
    INDEX 01 07:51:08
  TRACK 369 AUDIO
    TITLE "0:"
    INDEX 01 07:52:61
  TRACK 370 AUDIO
    TITLE "28:cjc024_6905"
    INDEX 01 07:53:60
  TRACK 371 AUDIO
    TITLE "0:"
    INDEX 01 07:55:10
  TRACK 372 AUDIO
    TITLE "29:cjc024_6906"
    INDEX 01 07:55:47
  TRACK 373 AUDIO
    TITLE "0:"
    INDEX 01 07:57:62
  TRACK 374 AUDIO
    TITLE "30:cjc024_6907"
    INDEX 01 07:58:26
  TRACK 375 AUDIO
    TITLE "0:"
    INDEX 01 08:00:74
  TRACK 376 AUDIO
    TITLE "31:cjc024_6908"
    INDEX 01 08:01:24
  TRACK 377 AUDIO
    TITLE "0:"
    INDEX 01 08:03:74
  TRACK 378 AUDIO
    TITLE "28:cjc024_6909"
    INDEX 01 08:05:03
  TRACK 379 AUDIO
    TITLE "0:"
    INDEX 01 08:06:00
  TRACK 380 AUDIO
    TITLE "29:cjc024_6910"
    INDEX 01 08:06:41
  TRACK 381 AUDIO
    TITLE "0:"
    INDEX 01 08:09:18
  TRACK 382 AUDIO
    TITLE "30:cjc024_6911"
    INDEX 01 08:09:57
  TRACK 383 AUDIO
    TITLE "0:"
    INDEX 01 08:12:11
  TRACK 384 AUDIO
    TITLE "31:cjc024_6912"
    INDEX 01 08:12:42
  TRACK 385 AUDIO
    TITLE "0:"
    INDEX 01 08:14:72
  TRACK 386 AUDIO
    TITLE "28:cjc024_6913"
    INDEX 01 08:16:00
  TRACK 387 AUDIO
    TITLE "0:"
    INDEX 01 08:17:23
  TRACK 388 AUDIO
    TITLE "29:cjc024_6914"
    INDEX 01 08:17:63
  TRACK 389 AUDIO
    TITLE "0:"
    INDEX 01 08:20:02
  TRACK 390 AUDIO
    TITLE "30:cjc024_6915"
    INDEX 01 08:20:41
  TRACK 391 AUDIO
    TITLE "0:"
    INDEX 01 08:22:09
  TRACK 392 AUDIO
    TITLE "31:cjc024_6916"
    INDEX 01 08:22:44
  TRACK 393 AUDIO
    TITLE "0:"
    INDEX 01 08:24:14
  TRACK 394 AUDIO
    TITLE "28:cjc024_6917"
    INDEX 01 08:25:19
  TRACK 395 AUDIO
    TITLE "0:"
    INDEX 01 08:26:26
  TRACK 396 AUDIO
    TITLE "29:cjc024_6918"
    INDEX 01 08:26:69
  TRACK 397 AUDIO
    TITLE "0:"
    INDEX 01 08:28:57
  TRACK 398 AUDIO
    TITLE "30:cjc024_6919"
    INDEX 01 08:29:21
  TRACK 399 AUDIO
    TITLE "0:"
    INDEX 01 08:31:00
  TRACK 400 AUDIO
    TITLE "31:cjc024_6920"
    INDEX 01 08:31:31
  TRACK 401 AUDIO
    TITLE "0:"
    INDEX 01 08:33:09
  TRACK 402 AUDIO
    TITLE "28:cjc024_6921"
    INDEX 01 08:34:08
  TRACK 403 AUDIO
    TITLE "0:"
    INDEX 01 08:35:27
  TRACK 404 AUDIO
    TITLE "29:cjc024_6922"
    INDEX 01 08:35:66
  TRACK 405 AUDIO
    TITLE "0:"
    INDEX 01 08:37:54
  TRACK 406 AUDIO
    TITLE "30:cjc024_6923"
    INDEX 01 08:38:18
  TRACK 407 AUDIO
    TITLE "0:"
    INDEX 01 08:40:03
  TRACK 408 AUDIO
    TITLE "31:cjc024_6924"
    INDEX 01 08:40:28
  TRACK 409 AUDIO
    TITLE "0:"
    INDEX 01 08:42:18
  TRACK 410 AUDIO
    TITLE "28:cjc024_6925"
    INDEX 01 08:43:15
  TRACK 411 AUDIO
    TITLE "0:"
    INDEX 01 08:44:11
  TRACK 412 AUDIO
    TITLE "29:cjc024_6926"
    INDEX 01 08:44:52
  TRACK 413 AUDIO
    TITLE "0:"
    INDEX 01 08:46:53
  TRACK 414 AUDIO
    TITLE "30:cjc024_6927"
    INDEX 01 08:47:15
  TRACK 415 AUDIO
    TITLE "0:"
    INDEX 01 08:48:61
  TRACK 416 AUDIO
    TITLE "31:cjc024_6928"
    INDEX 01 08:49:16
  TRACK 417 AUDIO
    TITLE "0:"
    INDEX 01 08:50:62
  TRACK 418 AUDIO
    TITLE "28:cjc024_6929"
    INDEX 01 08:51:63
  TRACK 419 AUDIO
    TITLE "0:"
    INDEX 01 08:53:04
  TRACK 420 AUDIO
    TITLE "29:cjc024_6930"
    INDEX 01 08:53:43
  TRACK 421 AUDIO
    TITLE "0:"
    INDEX 01 08:56:41
  TRACK 422 AUDIO
    TITLE "30:cjc024_6931"
    INDEX 01 08:57:05
  TRACK 423 AUDIO
    TITLE "0:"
    INDEX 01 08:59:53
  TRACK 424 AUDIO
    TITLE "31:cjc024_6932"
    INDEX 01 09:00:06
  TRACK 425 AUDIO
    TITLE "0:"
    INDEX 01 09:02:52
  TRACK 426 AUDIO
    TITLE "28:cjc024_6933"
    INDEX 01 09:03:51
  TRACK 427 AUDIO
    TITLE "0:"
    INDEX 01 09:04:52
  TRACK 428 AUDIO
    TITLE "29:cjc024_6934"
    INDEX 01 09:05:19
  TRACK 429 AUDIO
    TITLE "0:"
    INDEX 01 09:08:31
  TRACK 430 AUDIO
    TITLE "30:cjc024_6935"
    INDEX 01 09:08:66
  TRACK 431 AUDIO
    TITLE "0:"
    INDEX 01 09:11:19
  TRACK 432 AUDIO
    TITLE "31:cjc024_6936"
    INDEX 01 09:11:49
  TRACK 433 AUDIO
    TITLE "0:"
    INDEX 01 09:14:04
  TRACK 434 AUDIO
    TITLE "28:cjc024_6937"
    INDEX 01 09:15:05
  TRACK 435 AUDIO
    TITLE "0:"
    INDEX 01 09:16:20
  TRACK 436 AUDIO
    TITLE "29:cjc024_6938"
    INDEX 01 09:16:58
  TRACK 437 AUDIO
    TITLE "0:"
    INDEX 01 09:19:42
  TRACK 438 AUDIO
    TITLE "30:cjc024_6939"
    INDEX 01 09:20:04
  TRACK 439 AUDIO
    TITLE "0:"
    INDEX 01 09:22:64
  TRACK 440 AUDIO
    TITLE "31:cjc024_6940"
    INDEX 01 09:23:15
  TRACK 441 AUDIO
    TITLE "0:"
    INDEX 01 09:25:74
  TRACK 442 AUDIO
    TITLE "28:cjc024_6941"
    INDEX 01 09:27:03
  TRACK 443 AUDIO
    TITLE "0:"
    INDEX 01 09:28:02
  TRACK 444 AUDIO
    TITLE "29:cjc024_6942"
    INDEX 01 09:28:41
  TRACK 445 AUDIO
    TITLE "0:"
    INDEX 01 09:32:12
  TRACK 446 AUDIO
    TITLE "30:cjc024_6943"
    INDEX 01 09:32:53
  TRACK 447 AUDIO
    TITLE "0:"
    INDEX 01 09:35:55
  TRACK 448 AUDIO
    TITLE "31:cjc024_6944"
    INDEX 01 09:36:11
  TRACK 449 AUDIO
    TITLE "0:"
    INDEX 01 09:39:15
  TRACK 450 AUDIO
    TITLE "28:cjc024_6945"
    INDEX 01 09:40:23
  TRACK 451 AUDIO
    TITLE "0:"
    INDEX 01 09:41:54
  TRACK 452 AUDIO
    TITLE "29:cjc024_6946"
    INDEX 01 09:42:18
  TRACK 453 AUDIO
    TITLE "0:"
    INDEX 01 09:44:36
  TRACK 454 AUDIO
    TITLE "30:cjc024_6947"
    INDEX 01 09:45:00
  TRACK 455 AUDIO
    TITLE "0:"
    INDEX 01 09:46:66
  TRACK 456 AUDIO
    TITLE "31:cjc024_6948"
    INDEX 01 09:47:17
  TRACK 457 AUDIO
    TITLE "0:"
    INDEX 01 09:49:08
  TRACK 458 AUDIO
    TITLE "28:cjc024_6949"
    INDEX 01 09:50:09
  TRACK 459 AUDIO
    TITLE "0:"
    INDEX 01 09:51:21
  TRACK 460 AUDIO
    TITLE "29:cjc024_6950"
    INDEX 01 09:51:56
  TRACK 461 AUDIO
    TITLE "0:"
    INDEX 01 09:54:37
  TRACK 462 AUDIO
    TITLE "30:cjc024_6951"
    INDEX 01 09:54:74
  TRACK 463 AUDIO
    TITLE "0:"
    INDEX 01 09:57:45
  TRACK 464 AUDIO
    TITLE "31:cjc024_6952"
    INDEX 01 09:57:68
  TRACK 465 AUDIO
    TITLE "0:"
    INDEX 01 10:00:37
  TRACK 466 AUDIO
    TITLE "28:cjc024_6953"
    INDEX 01 10:01:39
  TRACK 467 AUDIO
    TITLE "0:"
    INDEX 01 10:02:50
  TRACK 468 AUDIO
    TITLE "29:cjc024_6954"
    INDEX 01 10:03:12
  TRACK 469 AUDIO
    TITLE "0:"
    INDEX 01 10:05:36
  TRACK 470 AUDIO
    TITLE "30:cjc024_6955"
    INDEX 01 10:06:03
  TRACK 471 AUDIO
    TITLE "0:"
    INDEX 01 10:07:45
  TRACK 472 AUDIO
    TITLE "31:cjc024_6956"
    INDEX 01 10:07:73
  TRACK 473 AUDIO
    TITLE "0:"
    INDEX 01 10:09:42
  TRACK 474 AUDIO
    TITLE "28:cjc024_6957"
    INDEX 01 10:10:40
  TRACK 475 AUDIO
    TITLE "0:"
    INDEX 01 10:11:59
  TRACK 476 AUDIO
    TITLE "29:cjc024_6958"
    INDEX 01 10:12:21
  TRACK 477 AUDIO
    TITLE "0:"
    INDEX 01 10:14:30
  TRACK 478 AUDIO
    TITLE "30:cjc024_6959"
    INDEX 01 10:14:67
  TRACK 479 AUDIO
    TITLE "0:"
    INDEX 01 10:16:32
  TRACK 480 AUDIO
    TITLE "31:cjc024_6960"
    INDEX 01 10:16:60
  TRACK 481 AUDIO
    TITLE "0:"
    INDEX 01 10:18:25
  TRACK 482 AUDIO
    TITLE "28:cjc024_6961"
    INDEX 01 10:19:23
  TRACK 483 AUDIO
    TITLE "0:"
    INDEX 01 10:20:38
  TRACK 484 AUDIO
    TITLE "29:cjc024_6962"
    INDEX 01 10:20:73
  TRACK 485 AUDIO
    TITLE "0:"
    INDEX 01 10:22:72
  TRACK 486 AUDIO
    TITLE "30:cjc024_6963"
    INDEX 01 10:23:32
  TRACK 487 AUDIO
    TITLE "0:"
    INDEX 01 10:25:10
  TRACK 488 AUDIO
    TITLE "31:cjc024_6964"
    INDEX 01 10:25:31
  TRACK 489 AUDIO
    TITLE "0:"
    INDEX 01 10:27:11
  TRACK 490 AUDIO
    TITLE "28:cjc024_6965"
    INDEX 01 10:28:16
  TRACK 491 AUDIO
    TITLE "0:"
    INDEX 01 10:29:17
  TRACK 492 AUDIO
    TITLE "29:cjc024_6966"
    INDEX 01 10:29:57
  TRACK 493 AUDIO
    TITLE "0:"
    INDEX 01 10:32:35
  TRACK 494 AUDIO
    TITLE "30:cjc024_6967"
    INDEX 01 10:32:74
  TRACK 495 AUDIO
    TITLE "0:"
    INDEX 01 10:35:30
  TRACK 496 AUDIO
    TITLE "31:cjc024_6968"
    INDEX 01 10:35:53
  TRACK 497 AUDIO
    TITLE "0:"
    INDEX 01 10:38:08
  TRACK 498 AUDIO
    TITLE "28:cjc024_6969"
    INDEX 01 10:39:12
  TRACK 499 AUDIO
    TITLE "0:"
    INDEX 01 10:40:25
  TRACK 500 AUDIO
    TITLE "29:cjc024_6970"
    INDEX 01 10:40:68
  TRACK 501 AUDIO
    TITLE "0:"
    INDEX 01 10:42:65
  TRACK 502 AUDIO
    TITLE "30:cjc024_6971"
    INDEX 01 10:43:27
  TRACK 503 AUDIO
    TITLE "0:"
    INDEX 01 10:45:48
  TRACK 504 AUDIO
    TITLE "31:cjc024_6972"
    INDEX 01 10:45:73
  TRACK 505 AUDIO
    TITLE "0:"
    INDEX 01 10:48:19
  TRACK 506 AUDIO
    TITLE "28:cjc024_6973"
    INDEX 01 10:49:20
  TRACK 507 AUDIO
    TITLE "0:"
    INDEX 01 10:50:25
  TRACK 508 AUDIO
    TITLE "29:cjc024_6974"
    INDEX 01 10:50:70
  TRACK 509 AUDIO
    TITLE "0:"
    INDEX 01 10:53:67
  TRACK 510 AUDIO
    TITLE "30:cjc024_6975"
    INDEX 01 10:54:27
  TRACK 511 AUDIO
    TITLE "0:"
    INDEX 01 10:56:65
  TRACK 512 AUDIO
    TITLE "31:cjc024_6976"
    INDEX 01 10:57:18
  TRACK 513 AUDIO
    TITLE "0:"
    INDEX 01 10:59:56
  TRACK 514 AUDIO
    TITLE "28:cjc024_6977"
    INDEX 01 11:00:53
  TRACK 515 AUDIO
    TITLE "0:"
    INDEX 01 11:01:70
  TRACK 516 AUDIO
    TITLE "29:cjc024_6978"
    INDEX 01 11:02:34
  TRACK 517 AUDIO
    TITLE "0:"
    INDEX 01 11:05:64
  TRACK 518 AUDIO
    TITLE "30:cjc024_6979"
    INDEX 01 11:06:26
  TRACK 519 AUDIO
    TITLE "0:"
    INDEX 01 11:08:53
  TRACK 520 AUDIO
    TITLE "31:cjc024_6980"
    INDEX 01 11:08:74
  TRACK 521 AUDIO
    TITLE "0:"
    INDEX 01 11:11:24
  TRACK 522 AUDIO
    TITLE "28:cjc024_6981"
    INDEX 01 11:12:23
  TRACK 523 AUDIO
    TITLE "0:"
    INDEX 01 11:13:36
  TRACK 524 AUDIO
    TITLE "29:cjc024_6982"
    INDEX 01 11:13:73
  TRACK 525 AUDIO
    TITLE "0:"
    INDEX 01 11:15:51
  TRACK 526 AUDIO
    TITLE "30:cjc024_6983"
    INDEX 01 11:16:13
  TRACK 527 AUDIO
    TITLE "0:"
    INDEX 01 11:17:50
  TRACK 528 AUDIO
    TITLE "31:cjc024_6984"
    INDEX 01 11:17:73
  TRACK 529 AUDIO
    TITLE "0:"
    INDEX 01 11:19:33
  TRACK 530 AUDIO
    TITLE "28:cjc024_6985"
    INDEX 01 11:20:30
  TRACK 531 AUDIO
    TITLE "0:"
    INDEX 01 11:21:53
  TRACK 532 AUDIO
    TITLE "29:cjc024_6986"
    INDEX 01 11:22:18
  TRACK 533 AUDIO
    TITLE "0:"
    INDEX 01 11:23:62
  TRACK 534 AUDIO
    TITLE "30:cjc024_6987"
    INDEX 01 11:24:24
  TRACK 535 AUDIO
    TITLE "0:"
    INDEX 01 11:26:17
  TRACK 536 AUDIO
    TITLE "31:cjc024_6988"
    INDEX 01 11:26:43
  TRACK 537 AUDIO
    TITLE "0:"
    INDEX 01 11:28:34
  TRACK 538 AUDIO
    TITLE "28:cjc024_6989"
    INDEX 01 11:29:29
  TRACK 539 AUDIO
    TITLE "0:"
    INDEX 01 11:30:52
  TRACK 540 AUDIO
    TITLE "29:cjc024_6990"
    INDEX 01 11:31:15
  TRACK 541 AUDIO
    TITLE "0:"
    INDEX 01 11:34:56
  TRACK 542 AUDIO
    TITLE "30:cjc024_6991"
    INDEX 01 11:35:18
  TRACK 543 AUDIO
    TITLE "0:"
    INDEX 01 11:38:07
  TRACK 544 AUDIO
    TITLE "31:cjc024_6992"
    INDEX 01 11:38:36
  TRACK 545 AUDIO
    TITLE "0:"
    INDEX 01 11:41:27
  TRACK 546 AUDIO
    TITLE "28:cjc024_6993"
    INDEX 01 11:42:28
  TRACK 547 AUDIO
    TITLE "0:"
    INDEX 01 11:43:41
  TRACK 548 AUDIO
    TITLE "29:cjc024_6994"
    INDEX 01 11:44:03
  TRACK 549 AUDIO
    TITLE "0:"
    INDEX 01 11:47:14
  TRACK 550 AUDIO
    TITLE "30:cjc024_6995"
    INDEX 01 11:47:49
  TRACK 551 AUDIO
    TITLE "0:"
    INDEX 01 11:50:30
  TRACK 552 AUDIO
    TITLE "31:cjc024_6996"
    INDEX 01 11:50:55
  TRACK 553 AUDIO
    TITLE "0:"
    INDEX 01 11:53:40
  TRACK 554 AUDIO
    TITLE "28:cjc024_6997"
    INDEX 01 11:54:37
  TRACK 555 AUDIO
    TITLE "0:"
    INDEX 01 11:55:52
  TRACK 556 AUDIO
    TITLE "29:cjc024_6998"
    INDEX 01 11:56:14
  TRACK 557 AUDIO
    TITLE "0:"
    INDEX 01 11:58:70
  TRACK 558 AUDIO
    TITLE "30:cjc024_6999"
    INDEX 01 11:59:30
  TRACK 559 AUDIO
    TITLE "0:"
    INDEX 01 12:02:27
  TRACK 560 AUDIO
    TITLE "31:cjc024_7000"
    INDEX 01 12:02:50
  TRACK 561 AUDIO
    TITLE "0:"
    INDEX 01 12:05:49
  TRACK 562 AUDIO
    TITLE "28:cjc024_7001"
    INDEX 01 12:06:48
  TRACK 563 AUDIO
    TITLE "0:"
    INDEX 01 12:08:12
  TRACK 564 AUDIO
    TITLE "29:cjc024_7002"
    INDEX 01 12:08:47
  TRACK 565 AUDIO
    TITLE "0:"
    INDEX 01 12:10:60
  TRACK 566 AUDIO
    TITLE "30:cjc024_7003"
    INDEX 01 12:11:22
  TRACK 567 AUDIO
    TITLE "0:"
    INDEX 01 12:13:48
  TRACK 568 AUDIO
    TITLE "31:cjc024_7004"
    INDEX 01 12:14:01
  TRACK 569 AUDIO
    TITLE "0:"
    INDEX 01 12:16:25
  TRACK 570 AUDIO
    TITLE "28:cjc024_7005"
    INDEX 01 12:17:24
  TRACK 571 AUDIO
    TITLE "0:"
    INDEX 01 12:18:42
  TRACK 572 AUDIO
    TITLE "29:cjc024_7006"
    INDEX 01 12:19:06
  TRACK 573 AUDIO
    TITLE "0:"
    INDEX 01 12:21:48
  TRACK 574 AUDIO
    TITLE "30:cjc024_7007"
    INDEX 01 12:22:10
  TRACK 575 AUDIO
    TITLE "0:"
    INDEX 01 12:24:01
  TRACK 576 AUDIO
    TITLE "31:cjc024_7008"
    INDEX 01 12:24:24
  TRACK 577 AUDIO
    TITLE "0:"
    INDEX 01 12:26:18
  TRACK 578 AUDIO
    TITLE "28:cjc024_7009"
    INDEX 01 12:27:21
  TRACK 579 AUDIO
    TITLE "0:"
    INDEX 01 12:28:54
  TRACK 580 AUDIO
    TITLE "29:cjc024_7010"
    INDEX 01 12:29:14
  TRACK 581 AUDIO
    TITLE "0:"
    INDEX 01 12:31:09
  TRACK 582 AUDIO
    TITLE "30:cjc024_7011"
    INDEX 01 12:31:46
  TRACK 583 AUDIO
    TITLE "0:"
    INDEX 01 12:33:37
  TRACK 584 AUDIO
    TITLE "31:cjc024_7012"
    INDEX 01 12:33:63
  TRACK 585 AUDIO
    TITLE "0:"
    INDEX 01 12:35:54
  TRACK 586 AUDIO
    TITLE "28:cjc024_7013"
    INDEX 01 12:36:51
  TRACK 587 AUDIO
    TITLE "0:"
    INDEX 01 12:37:68
  TRACK 588 AUDIO
    TITLE "29:cjc024_7014"
    INDEX 01 12:38:32
  TRACK 589 AUDIO
    TITLE "0:"
    INDEX 01 12:40:25
  TRACK 590 AUDIO
    TITLE "30:cjc024_7015"
    INDEX 01 12:40:65
  TRACK 591 AUDIO
    TITLE "0:"
    INDEX 01 12:42:66
  TRACK 592 AUDIO
    TITLE "31:cjc024_7016"
    INDEX 01 12:43:18
  TRACK 593 AUDIO
    TITLE "0:"
    INDEX 01 12:45:21
  TRACK 594 AUDIO
    TITLE "28:cjc024_7017"
    INDEX 01 12:46:18
  TRACK 595 AUDIO
    TITLE "0:"
    INDEX 01 12:47:31
  TRACK 596 AUDIO
    TITLE "29:cjc024_7018"
    INDEX 01 12:47:73
  TRACK 597 AUDIO
    TITLE "0:"
    INDEX 01 12:50:51
  TRACK 598 AUDIO
    TITLE "30:cjc024_7019"
    INDEX 01 12:51:15
  TRACK 599 AUDIO
    TITLE "0:"
    INDEX 01 12:53:63
  TRACK 600 AUDIO
    TITLE "31:cjc024_7020"
    INDEX 01 12:54:16
  TRACK 601 AUDIO
    TITLE "0:"
    INDEX 01 12:56:64
  TRACK 602 AUDIO
    TITLE "28:cjc024_7021"
    INDEX 01 12:57:61
  TRACK 603 AUDIO
    TITLE "0:"
    INDEX 01 12:58:74
  TRACK 604 AUDIO
    TITLE "29:cjc024_7022"
    INDEX 01 12:59:39
  TRACK 605 AUDIO
    TITLE "0:"
    INDEX 01 13:02:02
  TRACK 606 AUDIO
    TITLE "30:cjc024_7023"
    INDEX 01 13:02:39
  TRACK 607 AUDIO
    TITLE "0:"
    INDEX 01 13:04:40
  TRACK 608 AUDIO
    TITLE "31:cjc024_7024"
    INDEX 01 13:04:63
  TRACK 609 AUDIO
    TITLE "0:"
    INDEX 01 13:06:62
  TRACK 610 AUDIO
    TITLE "28:cjc024_7025"
    INDEX 01 13:07:63
  TRACK 611 AUDIO
    TITLE "0:"
    INDEX 01 13:09:08
  TRACK 612 AUDIO
    TITLE "29:cjc024_7026"
    INDEX 01 13:09:49
  TRACK 613 AUDIO
    TITLE "0:"
    INDEX 01 13:11:55
  TRACK 614 AUDIO
    TITLE "30:cjc024_7027"
    INDEX 01 13:12:20
  TRACK 615 AUDIO
    TITLE "0:"
    INDEX 01 13:13:72
  TRACK 616 AUDIO
    TITLE "31:cjc024_7028"
    INDEX 01 13:14:22
  TRACK 617 AUDIO
    TITLE "0:"
    INDEX 01 13:16:04
  TRACK 618 AUDIO
    TITLE "28:cjc024_7029"
    INDEX 01 13:17:03
  TRACK 619 AUDIO
    TITLE "0:"
    INDEX 01 13:18:12
  TRACK 620 AUDIO
    TITLE "29:cjc024_7030"
    INDEX 01 13:18:52
  TRACK 621 AUDIO
    TITLE "0:"
    INDEX 01 13:21:05
  TRACK 622 AUDIO
    TITLE "30:cjc024_7031"
    INDEX 01 13:21:42
  TRACK 623 AUDIO
    TITLE "0:"
    INDEX 01 13:23:33
  TRACK 624 AUDIO
    TITLE "31:cjc024_7032"
    INDEX 01 13:23:61
  TRACK 625 AUDIO
    TITLE "0:"
    INDEX 01 13:25:52
  TRACK 626 AUDIO
    TITLE "28:cjc024_7033"
    INDEX 01 13:26:51
  TRACK 627 AUDIO
    TITLE "0:"
    INDEX 01 13:27:58
  TRACK 628 AUDIO
    TITLE "29:cjc024_7034"
    INDEX 01 13:28:23
  TRACK 629 AUDIO
    TITLE "0:"
    INDEX 01 13:31:31
  TRACK 630 AUDIO
    TITLE "30:cjc024_7035"
    INDEX 01 13:31:68
  TRACK 631 AUDIO
    TITLE "0:"
    INDEX 01 13:34:56
  TRACK 632 AUDIO
    TITLE "31:cjc024_7036"
    INDEX 01 13:35:09
  TRACK 633 AUDIO
    TITLE "0:"
    INDEX 01 13:37:74
  TRACK 634 AUDIO
    TITLE "28:cjc024_7037"
    INDEX 01 13:39:03
  TRACK 635 AUDIO
    TITLE "0:"
    INDEX 01 13:40:18
  TRACK 636 AUDIO
    TITLE "29:cjc024_7038"
    INDEX 01 13:40:53
  TRACK 637 AUDIO
    TITLE "0:"
    INDEX 01 13:42:17
  TRACK 638 AUDIO
    TITLE "30:cjc024_7039"
    INDEX 01 13:42:50
  TRACK 639 AUDIO
    TITLE "0:"
    INDEX 01 13:44:53
  TRACK 640 AUDIO
    TITLE "31:cjc024_7040"
    INDEX 01 13:45:01
  TRACK 641 AUDIO
    TITLE "0:"
    INDEX 01 13:47:00
  TRACK 642 AUDIO
    TITLE "28:cjc024_7041"
    INDEX 01 13:48:02
  TRACK 643 AUDIO
    TITLE "0:"
    INDEX 01 13:49:17
  TRACK 644 AUDIO
    TITLE "29:cjc024_7042"
    INDEX 01 13:49:54
  TRACK 645 AUDIO
    TITLE "0:"
    INDEX 01 13:52:19
  TRACK 646 AUDIO
    TITLE "30:cjc024_7043"
    INDEX 01 13:52:54
  TRACK 647 AUDIO
    TITLE "0:"
    INDEX 01 13:55:17
  TRACK 648 AUDIO
    TITLE "31:cjc024_7044"
    INDEX 01 13:55:45
  TRACK 649 AUDIO
    TITLE "0:"
    INDEX 01 13:58:04
  TRACK 650 AUDIO
    TITLE "28:cjc024_7045"
    INDEX 01 13:59:05
  TRACK 651 AUDIO
    TITLE "0:"
    INDEX 01 14:00:17
  TRACK 652 AUDIO
    TITLE "29:cjc024_7046"
    INDEX 01 14:00:52
  TRACK 653 AUDIO
    TITLE "0:"
    INDEX 01 14:02:57
  TRACK 654 AUDIO
    TITLE "30:cjc024_7047"
    INDEX 01 14:03:19
  TRACK 655 AUDIO
    TITLE "0:"
    INDEX 01 14:06:02
  TRACK 656 AUDIO
    TITLE "31:cjc024_7048"
    INDEX 01 14:06:33
  TRACK 657 AUDIO
    TITLE "0:"
    INDEX 01 14:09:14
  TRACK 658 AUDIO
    TITLE "28:cjc024_7049"
    INDEX 01 14:10:19
  TRACK 659 AUDIO
    TITLE "0:"
    INDEX 01 14:11:32
  TRACK 660 AUDIO
    TITLE "29:cjc024_7050"
    INDEX 01 14:11:67
  TRACK 661 AUDIO
    TITLE "0:"
    INDEX 01 14:14:19
  TRACK 662 AUDIO
    TITLE "30:cjc024_7051"
    INDEX 01 14:14:58
  TRACK 663 AUDIO
    TITLE "0:"
    INDEX 01 14:16:71
  TRACK 664 AUDIO
    TITLE "31:cjc024_7052"
    INDEX 01 14:17:23
  TRACK 665 AUDIO
    TITLE "0:"
    INDEX 01 14:19:36
  TRACK 666 AUDIO
    TITLE "28:cjc024_7053"
    INDEX 01 14:20:37
  TRACK 667 AUDIO
    TITLE "0:"
    INDEX 01 14:21:58
  TRACK 668 AUDIO
    TITLE "29:cjc024_7054"
    INDEX 01 14:22:18
  TRACK 669 AUDIO
    TITLE "0:"
    INDEX 01 14:26:40
  TRACK 670 AUDIO
    TITLE "30:cjc024_7055"
    INDEX 01 14:27:02
  TRACK 671 AUDIO
    TITLE "0:"
    INDEX 01 14:29:40
  TRACK 672 AUDIO
    TITLE "31:cjc024_7056"
    INDEX 01 14:29:63
  TRACK 673 AUDIO
    TITLE "0:"
    INDEX 01 14:32:26
  TRACK 674 AUDIO
    TITLE "28:cjc024_7057"
    INDEX 01 14:33:28
  TRACK 675 AUDIO
    TITLE "0:"
    INDEX 01 14:34:47
  TRACK 676 AUDIO
    TITLE "29:cjc024_7058"
    INDEX 01 14:35:09
  TRACK 677 AUDIO
    TITLE "0:"
    INDEX 01 14:37:06
  TRACK 678 AUDIO
    TITLE "30:cjc024_7059"
    INDEX 01 14:37:43
  TRACK 679 AUDIO
    TITLE "0:"
    INDEX 01 14:39:42
  TRACK 680 AUDIO
    TITLE "31:cjc024_7060"
    INDEX 01 14:39:70
  TRACK 681 AUDIO
    TITLE "0:"
    INDEX 01 14:41:69
  TRACK 682 AUDIO
    TITLE "28:cjc024_7061"
    INDEX 01 14:42:70
  TRACK 683 AUDIO
    TITLE "0:"
    INDEX 01 14:43:71
  TRACK 684 AUDIO
    TITLE "29:cjc024_7062"
    INDEX 01 14:44:36
  TRACK 685 AUDIO
    TITLE "0:"
    INDEX 01 14:47:63
  TRACK 686 AUDIO
    TITLE "30:cjc024_7063"
    INDEX 01 14:48:25
  TRACK 687 AUDIO
    TITLE "0:"
    INDEX 01 14:51:20
  TRACK 688 AUDIO
    TITLE "31:cjc024_7064"
    INDEX 01 14:51:43
  TRACK 689 AUDIO
    TITLE "0:"
    INDEX 01 14:54:36
  TRACK 690 AUDIO
    TITLE "28:cjc024_7065"
    INDEX 01 14:55:35
  TRACK 691 AUDIO
    TITLE "0:"
    INDEX 01 14:56:52
  TRACK 692 AUDIO
    TITLE "29:cjc024_7066"
    INDEX 01 14:57:17
  TRACK 693 AUDIO
    TITLE "0:"
    INDEX 01 14:59:14
  TRACK 694 AUDIO
    TITLE "30:cjc024_7067"
    INDEX 01 14:59:53
  TRACK 695 AUDIO
    TITLE "0:"
    INDEX 01 15:01:52
  TRACK 696 AUDIO
    TITLE "31:cjc024_7068"
    INDEX 01 15:01:73
  TRACK 697 AUDIO
    TITLE "0:"
    INDEX 01 15:03:74
  TRACK 698 AUDIO
    TITLE "28:cjc024_7069"
    INDEX 01 15:04:72
  TRACK 699 AUDIO
    TITLE "0:"
    INDEX 01 15:06:18
  TRACK 700 AUDIO
    TITLE "29:cjc024_7070"
    INDEX 01 15:06:57
  TRACK 701 AUDIO
    TITLE "0:"
    INDEX 01 15:09:24
  TRACK 702 AUDIO
    TITLE "30:cjc024_7071"
    INDEX 01 15:09:61
  TRACK 703 AUDIO
    TITLE "0:"
    INDEX 01 15:11:70
  TRACK 704 AUDIO
    TITLE "31:cjc024_7072"
    INDEX 01 15:12:18
  TRACK 705 AUDIO
    TITLE "0:"
    INDEX 01 15:14:29
  TRACK 706 AUDIO
    TITLE "28:cjc024_7073"
    INDEX 01 15:15:28
  TRACK 707 AUDIO
    TITLE "0:"
    INDEX 01 15:16:26
  TRACK 708 AUDIO
    TITLE "29:cjc024_7074"
    INDEX 01 15:16:63
  TRACK 709 AUDIO
    TITLE "0:"
    INDEX 01 15:18:25
  TRACK 710 AUDIO
    TITLE "30:cjc024_7075"
    INDEX 01 15:18:62
  TRACK 711 AUDIO
    TITLE "0:"
    INDEX 01 15:20:29
  TRACK 712 AUDIO
    TITLE "31:cjc024_7076"
    INDEX 01 15:20:57
  TRACK 713 AUDIO
    TITLE "0:"
    INDEX 01 15:22:24
  TRACK 714 AUDIO
    TITLE "28:cjc024_7077"
    INDEX 01 15:23:28
  TRACK 715 AUDIO
    TITLE "0:"
    INDEX 01 15:24:43
  TRACK 716 AUDIO
    TITLE "29:cjc024_7078"
    INDEX 01 15:25:01
  TRACK 717 AUDIO
    TITLE "0:"
    INDEX 01 15:27:69
  TRACK 718 AUDIO
    TITLE "30:cjc024_7079"
    INDEX 01 15:28:39
  TRACK 719 AUDIO
    TITLE "0:"
    INDEX 01 15:31:08
  TRACK 720 AUDIO
    TITLE "31:cjc024_7080"
    INDEX 01 15:31:39
  TRACK 721 AUDIO
    TITLE "0:"
    INDEX 01 15:34:08
  TRACK 722 AUDIO
    TITLE "28:cjc024_7081"
    INDEX 01 15:35:05
  TRACK 723 AUDIO
    TITLE "0:"
    INDEX 01 15:36:07
  TRACK 724 AUDIO
    TITLE "29:cjc024_7082"
    INDEX 01 15:36:44
  TRACK 725 AUDIO
    TITLE "0:"
    INDEX 01 15:39:25
  TRACK 726 AUDIO
    TITLE "30:cjc024_7083"
    INDEX 01 15:39:62
  TRACK 727 AUDIO
    TITLE "0:"
    INDEX 01 15:42:07
  TRACK 728 AUDIO
    TITLE "31:cjc024_7084"
    INDEX 01 15:42:35
  TRACK 729 AUDIO
    TITLE "0:"
    INDEX 01 15:44:55
  TRACK 730 AUDIO
    TITLE "28:cjc024_7085"
    INDEX 01 15:45:57
  TRACK 731 AUDIO
    TITLE "0:"
    INDEX 01 15:46:72
  TRACK 732 AUDIO
    TITLE "29:cjc024_7086"
    INDEX 01 15:47:32
  TRACK 733 AUDIO
    TITLE "0:"
    INDEX 01 15:50:15
  TRACK 734 AUDIO
    TITLE "30:cjc024_7087"
    INDEX 01 15:50:52
  TRACK 735 AUDIO
    TITLE "0:"
    INDEX 01 15:52:22
  TRACK 736 AUDIO
    TITLE "31:cjc024_7088"
    INDEX 01 15:52:47
  TRACK 737 AUDIO
    TITLE "0:"
    INDEX 01 15:54:17
  TRACK 738 AUDIO
    TITLE "28:cjc024_7089"
    INDEX 01 15:55:18
  TRACK 739 AUDIO
    TITLE "0:"
    INDEX 01 15:56:35
  TRACK 740 AUDIO
    TITLE "29:cjc024_7090"
    INDEX 01 15:56:74
  TRACK 741 AUDIO
    TITLE "0:"
    INDEX 01 15:58:36
  TRACK 742 AUDIO
    TITLE "30:cjc024_7091"
    INDEX 01 15:58:71
  TRACK 743 AUDIO
    TITLE "0:"
    INDEX 01 16:00:66
  TRACK 744 AUDIO
    TITLE "31:cjc024_7092"
    INDEX 01 16:01:19
  TRACK 745 AUDIO
    TITLE "0:"
    INDEX 01 16:03:12
  TRACK 746 AUDIO
    TITLE "28:cjc024_7093"
    INDEX 01 16:04:11
  TRACK 747 AUDIO
    TITLE "0:"
    INDEX 01 16:05:12
  TRACK 748 AUDIO
    TITLE "29:cjc024_7094"
    INDEX 01 16:05:52
  TRACK 749 AUDIO
    TITLE "0:"
    INDEX 01 16:07:62
  TRACK 750 AUDIO
    TITLE "30:cjc024_7095"
    INDEX 01 16:08:24
  TRACK 751 AUDIO
    TITLE "0:"
    INDEX 01 16:10:06
  TRACK 752 AUDIO
    TITLE "31:cjc024_7096"
    INDEX 01 16:10:27
  TRACK 753 AUDIO
    TITLE "0:"
    INDEX 01 16:12:09
  TRACK 754 AUDIO
    TITLE "28:cjc024_7097"
    INDEX 01 16:13:08
  TRACK 755 AUDIO
    TITLE "0:"
    INDEX 01 16:14:07
  TRACK 756 AUDIO
    TITLE "29:cjc024_7098"
    INDEX 01 16:14:47
  TRACK 757 AUDIO
    TITLE "0:"
    INDEX 01 16:16:16
  TRACK 758 AUDIO
    TITLE "30:cjc024_7099"
    INDEX 01 16:16:55
  TRACK 759 AUDIO
    TITLE "0:"
    INDEX 01 16:18:21
  TRACK 760 AUDIO
    TITLE "31:cjc024_7100"
    INDEX 01 16:18:46
  TRACK 761 AUDIO
    TITLE "0:"
    INDEX 01 16:20:12
  TRACK 762 AUDIO
    TITLE "28:cjc024_7101"
    INDEX 01 16:21:09
  TRACK 763 AUDIO
    TITLE "0:"
    INDEX 01 16:22:19
  TRACK 764 AUDIO
    TITLE "29:cjc024_7102"
    INDEX 01 16:22:54
  TRACK 765 AUDIO
    TITLE "0:"
    INDEX 01 16:25:13
  TRACK 766 AUDIO
    TITLE "30:cjc024_7103"
    INDEX 01 16:25:50
  TRACK 767 AUDIO
    TITLE "0:"
    INDEX 01 16:27:71
  TRACK 768 AUDIO
    TITLE "31:cjc024_7104"
    INDEX 01 16:28:21
  TRACK 769 AUDIO
    TITLE "0:"
    INDEX 01 16:30:40
  TRACK 770 AUDIO
    TITLE "28:cjc024_7105"
    INDEX 01 16:31:39
  TRACK 771 AUDIO
    TITLE "0:"
    INDEX 01 16:32:52
  TRACK 772 AUDIO
    TITLE "29:cjc024_7106"
    INDEX 01 16:33:19
  TRACK 773 AUDIO
    TITLE "0:"
    INDEX 01 16:35:37
  TRACK 774 AUDIO
    TITLE "30:cjc024_7107"
    INDEX 01 16:35:72
  TRACK 775 AUDIO
    TITLE "0:"
    INDEX 01 16:39:15
  TRACK 776 AUDIO
    TITLE "31:cjc024_7108"
    INDEX 01 16:39:41
  TRACK 777 AUDIO
    TITLE "0:"
    INDEX 01 16:42:61
  TRACK 778 AUDIO
    TITLE "28:cjc024_7109"
    INDEX 01 16:43:60
  TRACK 779 AUDIO
    TITLE "0:"
    INDEX 01 16:45:06
  TRACK 780 AUDIO
    TITLE "29:cjc024_7110"
    INDEX 01 16:45:41
  TRACK 781 AUDIO
    TITLE "0:"
    INDEX 01 16:47:23
  TRACK 782 AUDIO
    TITLE "30:cjc024_7111"
    INDEX 01 16:47:60
  TRACK 783 AUDIO
    TITLE "0:"
    INDEX 01 16:49:65
  TRACK 784 AUDIO
    TITLE "31:cjc024_7112"
    INDEX 01 16:50:15
  TRACK 785 AUDIO
    TITLE "0:"
    INDEX 01 16:52:20
  TRACK 786 AUDIO
    TITLE "28:cjc024_7113"
    INDEX 01 16:53:17
  TRACK 787 AUDIO
    TITLE "0:"
    INDEX 01 16:54:44
  TRACK 788 AUDIO
    TITLE "29:cjc024_7114"
    INDEX 01 16:55:08
  TRACK 789 AUDIO
    TITLE "0:"
    INDEX 01 16:57:52
  TRACK 790 AUDIO
    TITLE "30:cjc024_7115"
    INDEX 01 16:58:17
  TRACK 791 AUDIO
    TITLE "0:"
    INDEX 01 17:00:45
  TRACK 792 AUDIO
    TITLE "31:cjc024_7116"
    INDEX 01 17:00:68
  TRACK 793 AUDIO
    TITLE "0:"
    INDEX 01 17:03:22
  TRACK 794 AUDIO
    TITLE "28:cjc024_7117"
    INDEX 01 17:04:23
  TRACK 795 AUDIO
    TITLE "0:"
    INDEX 01 17:05:42
  TRACK 796 AUDIO
    TITLE "29:cjc024_7118"
    INDEX 01 17:06:00
  TRACK 797 AUDIO
    TITLE "0:"
    INDEX 01 17:09:05
  TRACK 798 AUDIO
    TITLE "30:cjc024_7119"
    INDEX 01 17:09:40
  TRACK 799 AUDIO
    TITLE "0:"
    INDEX 01 17:11:45
  TRACK 800 AUDIO
    TITLE "31:cjc024_7120"
    INDEX 01 17:11:68
  TRACK 801 AUDIO
    TITLE "0:"
    INDEX 01 17:14:00
